<svg xmlns="http://www.w3.org/2000/svg" width="47" height="47" viewBox="0 0 47 47" fill="none">
  <path d="M31.3333 5.875C32.8319 5.87492 34.2738 6.44747 35.3641 7.47551C36.4544 8.50356 37.1106 9.90938 37.1985 11.4053L37.2083 11.75V31.3333H38.6771C39.9441 31.3333 40.9879 32.2968 41.1132 33.5306L41.125 33.7812V37.2083C41.1251 38.7069 40.5525 40.1488 39.5245 41.2391C38.4964 42.3294 37.0906 42.9856 35.5947 43.0735L35.25 43.0833H15.6667C14.1681 43.0834 12.7262 42.5109 11.6359 41.4828C10.5456 40.4548 9.88936 39.049 9.80145 37.553L9.79166 37.2083V17.625H6.36457C5.75855 17.6253 5.17397 17.4007 4.72395 16.9949C4.27393 16.589 3.99046 16.0306 3.92841 15.4277L3.91666 15.1771V11.75C3.91657 10.2515 4.48913 8.80953 5.51717 7.71924C6.54521 6.62894 7.95103 5.97271 9.44699 5.88479L9.79166 5.875H31.3333ZM31.3333 9.79167H13.7083V37.2083C13.7083 37.7277 13.9146 38.2258 14.2819 38.5931C14.6492 38.9603 15.1473 39.1667 15.6667 39.1667C16.186 39.1667 16.6841 38.9603 17.0514 38.5931C17.4187 38.2258 17.625 37.7277 17.625 37.2083V33.7812C17.625 32.43 18.7217 31.3333 20.0729 31.3333H33.2917V11.75C33.2917 11.2306 33.0853 10.7325 32.7181 10.3652C32.3508 9.99799 31.8527 9.79167 31.3333 9.79167ZM37.2083 35.25H21.5417V37.2083C21.5417 37.8937 21.4242 38.5537 21.2087 39.1667H35.25C35.7694 39.1667 36.2675 38.9603 36.6347 38.5931C37.002 38.2258 37.2083 37.7277 37.2083 37.2083V35.25ZM23.5 23.5C24.0194 23.5 24.5175 23.7063 24.8847 24.0736C25.252 24.4408 25.4583 24.9389 25.4583 25.4583C25.4583 25.9777 25.252 26.4758 24.8847 26.8431C24.5175 27.2103 24.0194 27.4167 23.5 27.4167H19.5833C19.0639 27.4167 18.5658 27.2103 18.1986 26.8431C17.8313 26.4758 17.625 25.9777 17.625 25.4583C17.625 24.9389 17.8313 24.4408 18.1986 24.0736C18.5658 23.7063 19.0639 23.5 19.5833 23.5H23.5ZM27.4167 15.6667C27.936 15.6667 28.4341 15.873 28.8014 16.2402C29.1687 16.6075 29.375 17.1056 29.375 17.625C29.375 18.1444 29.1687 18.6425 28.8014 19.0097C28.4341 19.377 27.936 19.5833 27.4167 19.5833H19.5833C19.0639 19.5833 18.5658 19.377 18.1986 19.0097C17.8313 18.6425 17.625 18.1444 17.625 17.625C17.625 17.1056 17.8313 16.6075 18.1986 16.2402C18.5658 15.873 19.0639 15.6667 19.5833 15.6667H27.4167ZM9.79166 9.79167C9.312 9.79173 8.84904 9.96783 8.49059 10.2866C8.13215 10.6053 7.90315 11.0445 7.84703 11.5209L7.83332 11.75V13.7083H9.79166V9.79167Z" fill="#00B5E2"/>
</svg>