<svg xmlns="http://www.w3.org/2000/svg" width="47" height="47" viewBox="0 0 47 47" fill="none">
  <path fill-rule="evenodd" clip-rule="evenodd" d="M15.6667 7.83335H31.3333V3.91669H35.25V7.83335H37.2083C38.2471 7.83335 39.2433 8.246 39.9778 8.98052C40.7124 9.71504 41.125 10.7113 41.125 11.75V39.1667C41.125 40.2055 40.7124 41.2017 39.9778 41.9362C39.2433 42.6707 38.2471 43.0834 37.2083 43.0834H9.79167C8.7529 43.0834 7.75668 42.6707 7.02216 41.9362C6.28765 41.2017 5.875 40.2055 5.875 39.1667V11.75C5.875 10.7113 6.28765 9.71504 7.02216 8.98052C7.75668 8.246 8.7529 7.83335 9.79167 7.83335H11.75V3.91669H15.6667V7.83335ZM9.79167 15.6667V39.1667H37.2083V15.6667H9.79167ZM13.7083 21.5417H17.625V25.4584H13.7083V21.5417ZM21.5417 21.5417H25.4583V25.4584H21.5417V21.5417ZM29.375 21.5417H33.2917V25.4584H29.375V21.5417ZM29.375 29.375H33.2917V33.2917H29.375V29.375ZM21.5417 29.375H25.4583V33.2917H21.5417V29.375ZM13.7083 29.375H17.625V33.2917H13.7083V29.375Z" fill="#00B5E2"/>
</svg>