<?xml version="1.0" encoding="UTF-8"?>
<svg id="FAVICON_COLOR" data-name="FAVICON COLOR" xmlns="http://www.w3.org/2000/svg" viewBox="0 0 220 220">
  <defs>
    <style>
      .cls-1 {
        fill: #00b5e1;
      }

      .cls-1, .cls-2 {
        stroke-width: 0px;
      }

      .cls-2 {
        fill: #27251f;
      }
    </style>
  </defs>
  <path class="cls-1" d="M206.81,13.19v193.62H13.19V13.19h193.62M216.45,3.55H3.55v212.9h212.9V3.55h0Z"/>
  <rect class="cls-2" x="97.09" y="-19.08" width="25.82" height="141.99" transform="translate(161.92 -58.08) rotate(90)"/>
  <rect class="cls-2" x="58.38" y="58.36" width="25.82" height="64.56" transform="translate(161.92 19.35) rotate(90)"/>
  <rect class="cls-2" x="116.47" y="77.73" width="25.82" height="25.82" transform="translate(220.02 -38.74) rotate(90)"/>
  <rect class="cls-2" x="97.11" y="135.81" width="25.82" height="64.56" transform="translate(278.1 58.07) rotate(90)"/>
  <rect class="cls-2" x="155.2" y="77.73" width="25.82" height="25.82" transform="translate(258.75 -77.47) rotate(90)"/>
  <rect class="cls-2" x="58.38" y="97.08" width="25.82" height="64.56" transform="translate(200.65 58.08) rotate(90)"/>
  <rect class="cls-2" x="39.01" y="155.18" width="25.82" height="25.82" transform="translate(220 116.17) rotate(90)"/>
  <rect class="cls-2" x="155.2" y="155.18" width="25.82" height="25.82" transform="translate(336.2 -.03) rotate(90)"/>
  <rect class="cls-2" x="135.83" y="97.1" width="25.82" height="64.52" transform="translate(278.1 -19.37) rotate(90)"/>
</svg>