<?xml version="1.0" encoding="UTF-8"?>
<svg id="LONG_DARK_MONO" data-name="LONG DARK MONO" xmlns="http://www.w3.org/2000/svg" viewBox="0 0 400 100">
  <defs>
    <style>
      .cls-1 {
        fill: #27251f;
        stroke-width: 0px;
      }
    </style>
  </defs>
  <g>
    <path class="cls-1" d="M131.78,46.54v-5.32c-1-.17-1.97-.26-2.92-.26-2.68,0-4.55.78-5.61,2.34-1.06,1.56-1.59,4.02-1.59,7.4s.55,5.87,1.65,7.49,3.04,2.43,5.81,2.43,5.6-.39,8.5-1.17l.97,6.23c-3.03.86-6.27,1.3-9.73,1.3-9.6,0-14.4-5.41-14.4-16.22,0-5.58,1.09-9.66,3.28-12.23,2.18-2.57,5.83-3.86,10.93-3.86,3.29,0,6.45.41,9.47,1.23v10.64h-6.36Z"/>
    <path class="cls-1" d="M149.1,38.72c2.21-2.62,5.6-3.93,10.19-3.93s7.98,1.31,10.19,3.93c2.21,2.62,3.31,6.65,3.31,12.1s-1.1,9.51-3.31,12.17-5.6,3.99-10.19,3.99-7.98-1.33-10.19-3.99-3.31-6.72-3.31-12.17,1.1-9.48,3.31-12.1ZM154.32,43.36c-.89,1.51-1.33,4-1.33,7.46s.45,5.97,1.36,7.53c.91,1.56,2.55,2.34,4.93,2.34s4.02-.78,4.93-2.34c.91-1.56,1.36-4.07,1.36-7.53s-.44-5.95-1.33-7.46c-.89-1.51-2.54-2.27-4.96-2.27s-4.08.76-4.96,2.27Z"/>
    <path class="cls-1" d="M188.49,66.85c-6.92,0-10.38-3.29-10.38-9.86,0-3.5,1.11-5.96,3.34-7.36,2.23-1.41,5.31-2.11,9.25-2.11,1.86,0,3.98.11,6.36.32,0-2.6-.37-4.37-1.1-5.32-.74-.95-2.01-1.43-3.83-1.43s-3.94.22-6.36.65c-2.42.43-4.28.87-5.58,1.3l-1.23-6.16c4.54-1.38,8.98-2.08,13.3-2.08s7.32.95,8.99,2.85c1.66,1.9,2.5,5.13,2.5,9.67v13.17l.71,5.71-6.68.65-.65-2.98c-3.63,1.99-6.51,2.98-8.63,2.98ZM189.52,60.56c1.21,0,2.55-.28,4.02-.84,1.47-.56,2.64-1.19,3.5-1.88v-4.54c-2.6-.22-4.72-.32-6.36-.32-3.59,0-5.39,1.34-5.39,4.02,0,2.38,1.41,3.57,4.22,3.57Z"/>
    <path class="cls-1" d="M212.17,66.14v-5.97h9.67v-31.27l-8.37.06-.06-5.9,15.12-.06v37.18h9.15v5.97h-25.5Z"/>
    <path class="cls-1" d="M244.48,64.71l1.43-5.9c4.11,1.3,7.37,1.95,9.8,1.95s4.07-.24,4.93-.71c.87-.43,1.3-1.21,1.3-2.34s-.39-1.92-1.17-2.4c-.78-.48-2.25-.97-4.41-1.49-4.28-1.04-7.27-2.19-8.95-3.47-1.69-1.28-2.53-3.36-2.53-6.26,0-6.19,3.98-9.28,11.94-9.28,3.42,0,7.37.56,11.87,1.69l-1.23,6.16c-4.28-1.21-7.59-1.82-9.93-1.82s-3.9.21-4.7.62c-.8.41-1.2,1.11-1.2,2.11s.4,1.72,1.2,2.17c.8.45,2.87,1.14,6.2,2.04,3.33.91,5.77,1.96,7.33,3.15,1.56,1.19,2.34,3.21,2.34,6.07,0,6.53-4.02,9.8-12.07,9.8-3.76,0-7.81-.69-12.13-2.08Z"/>
    <path class="cls-1" d="M283.15,43.43v22.71h-6.68V22.86h6.68v14.27c3.5-1.56,6.25-2.34,8.24-2.34,3.72,0,6.35,1.08,7.88,3.24,1.54,2.16,2.3,5.32,2.3,9.47v18.62h-6.68v-18.75c0-1.82-.36-3.32-1.07-4.51-.71-1.19-1.65-1.78-2.82-1.78-2.12,0-4.74.78-7.85,2.34Z"/>
    <path class="cls-1" d="M309.24,66.14v-5.97h9.67v-18.88h-9.15v-5.97h15.83v24.85h9.15v5.97h-25.5ZM321.92,30.84c-1.32,0-2.36-.4-3.11-1.2-.76-.8-1.14-1.85-1.14-3.15s.39-2.34,1.17-3.11,1.83-1.17,3.15-1.17,2.34.38,3.05,1.14c.71.76,1.07,1.81,1.07,3.15s-.37,2.4-1.1,3.18c-.74.78-1.76,1.17-3.08,1.17Z"/>
    <path class="cls-1" d="M341.22,66.14v-5.97h7.07v-18.88h-6.81v-5.97h6.81c0-4.67.77-7.97,2.3-9.89,1.53-1.92,4.21-2.89,8.01-2.89,2.55,0,5.36.37,8.43,1.1l-1.04,5.9c-2.68-.6-4.93-.91-6.75-.91s-2.98.45-3.5,1.36-.78,2.68-.78,5.32h11.29v5.97h-11.29v18.88h11.42v5.97h-25.18Z"/>
    <path class="cls-1" d="M373.99,41.29v-5.97h5.26v-7.4l6.68-.65v8.05h12.13v5.97h-12.13v12.98c0,2.38.24,4.06.71,5.03.48.97,1.45,1.46,2.92,1.46,2.55,0,5.54-.41,8.95-1.23l1.1,5.77c-3.76.99-7.12,1.49-10.06,1.49-4.15,0-6.91-.93-8.27-2.79-1.36-1.86-2.04-5.1-2.04-9.73v-12.98h-5.26Z"/>
  </g>
  <g>
    <path class="cls-1" d="M84.55,9.93v80.18H4.37V9.93h80.18M88.54,5.94H.38v88.16h88.16V5.94h0Z"/>
    <rect class="cls-1" x="39.12" y="-3.43" width="10.69" height="58.8" transform="translate(70.43 -18.5) rotate(90)"/>
    <rect class="cls-1" x="23.09" y="28.63" width="10.69" height="26.73" transform="translate(70.43 13.57) rotate(90)"/>
    <rect class="cls-1" x="47.14" y="36.66" width="10.69" height="10.69" transform="translate(94.49 -10.49) rotate(90)"/>
    <rect class="cls-1" x="39.13" y="60.71" width="10.69" height="26.73" transform="translate(118.54 29.6) rotate(90)"/>
    <rect class="cls-1" x="63.18" y="36.66" width="10.69" height="10.69" transform="translate(110.53 -26.53) rotate(90)"/>
    <rect class="cls-1" x="23.09" y="44.67" width="10.69" height="26.73" transform="translate(86.47 29.6) rotate(90)"/>
    <rect class="cls-1" x="15.06" y="68.73" width="10.69" height="10.69" transform="translate(94.48 53.66) rotate(90)"/>
    <rect class="cls-1" x="63.18" y="68.73" width="10.69" height="10.69" transform="translate(142.6 5.54) rotate(90)"/>
    <rect class="cls-1" x="55.16" y="44.68" width="10.69" height="26.72" transform="translate(118.54 -2.47) rotate(90)"/>
  </g>
</svg>