<?xml version="1.0" encoding="UTF-8"?>
<svg id="SQUARE_DARK_COLOR" data-name="SQUARE DARK COLOR" xmlns="http://www.w3.org/2000/svg" viewBox="0 0 220 220">
  <defs>
    <style>
      .cls-1 {
        fill: #00b5e1;
      }

      .cls-1, .cls-2 {
        stroke-width: 0px;
      }

      .cls-2 {
        fill: #27251f;
      }
    </style>
  </defs>
  <g>
    <path class="cls-2" d="M27.29,179.3v-3.51c-.66-.11-1.3-.17-1.93-.17-1.77,0-3.01.51-3.71,1.54-.7,1.03-1.05,2.66-1.05,4.88s.36,3.88,1.09,4.95,2.01,1.61,3.83,1.61,3.7-.26,5.61-.77l.64,4.11c-2,.57-4.14.86-6.43.86-6.34,0-9.51-3.57-9.51-10.71,0-3.68.72-6.38,2.16-8.08,1.44-1.7,3.85-2.55,7.22-2.55,2.17,0,4.26.27,6.26.81v7.03h-4.2Z"/>
    <path class="cls-2" d="M38.73,174.14c1.46-1.73,3.7-2.59,6.73-2.59s5.27.86,6.73,2.59c1.46,1.73,2.19,4.39,2.19,7.99s-.73,6.28-2.19,8.03-3.7,2.63-6.73,2.63-5.27-.88-6.73-2.63-2.19-4.43-2.19-8.03.73-6.26,2.19-7.99ZM42.18,177.2c-.59,1-.88,2.64-.88,4.93s.3,3.94.9,4.97c.6,1.03,1.68,1.54,3.26,1.54s2.66-.51,3.26-1.54c.6-1.03.9-2.68.9-4.97s-.29-3.93-.88-4.93c-.59-1-1.68-1.5-3.28-1.5s-2.69.5-3.28,1.5Z"/>
    <path class="cls-2" d="M64.73,192.71c-4.57,0-6.86-2.17-6.86-6.51,0-2.31.74-3.93,2.21-4.86,1.47-.93,3.51-1.39,6.11-1.39,1.23,0,2.63.07,4.2.21,0-1.71-.24-2.88-.73-3.51-.49-.63-1.33-.94-2.53-.94s-2.6.14-4.2.43c-1.6.29-2.83.57-3.68.86l-.81-4.07c3-.91,5.93-1.37,8.78-1.37s4.83.63,5.93,1.89c1.1,1.26,1.65,3.38,1.65,6.38v8.7l.47,3.77-4.41.43-.43-1.97c-2.4,1.31-4.3,1.97-5.7,1.97ZM65.42,188.55c.8,0,1.68-.19,2.66-.56.97-.37,1.74-.79,2.31-1.24v-3c-1.71-.14-3.11-.21-4.2-.21-2.37,0-3.56.89-3.56,2.66,0,1.57.93,2.36,2.78,2.36Z"/>
    <path class="cls-2" d="M80.37,192.24v-3.94h6.38v-20.65l-5.53.04-.04-3.9,9.98-.04v24.55h6.04v3.94h-16.84Z"/>
    <path class="cls-2" d="M101.71,191.3l.94-3.9c2.71.86,4.87,1.29,6.47,1.29s2.68-.16,3.26-.47c.57-.29.86-.8.86-1.54s-.26-1.27-.77-1.59c-.51-.31-1.49-.64-2.91-.99-2.83-.69-4.8-1.45-5.91-2.29-1.11-.84-1.67-2.22-1.67-4.13,0-4.08,2.63-6.13,7.88-6.13,2.26,0,4.87.37,7.84,1.11l-.81,4.07c-2.83-.8-5.01-1.2-6.56-1.2s-2.58.14-3.11.41c-.53.27-.79.74-.79,1.39s.26,1.14.79,1.44c.53.3,1.89.75,4.09,1.35,2.2.6,3.81,1.29,4.84,2.08,1.03.79,1.54,2.12,1.54,4.01,0,4.31-2.66,6.47-7.97,6.47-2.49,0-5.16-.46-8.01-1.37Z"/>
    <path class="cls-2" d="M127.25,177.24v15h-4.41v-28.58h4.41v9.43c2.31-1.03,4.13-1.54,5.44-1.54,2.46,0,4.19.71,5.21,2.14,1.01,1.43,1.52,3.51,1.52,6.26v12.3h-4.41v-12.38c0-1.2-.24-2.19-.71-2.98-.47-.78-1.09-1.18-1.86-1.18-1.4,0-3.13.51-5.18,1.54Z"/>
    <path class="cls-2" d="M144.47,192.24v-3.94h6.38v-12.47h-6.04v-3.94h10.45v16.41h6.04v3.94h-16.84ZM152.84,168.93c-.87,0-1.56-.26-2.06-.79-.5-.53-.75-1.22-.75-2.08s.26-1.54.77-2.06,1.21-.77,2.08-.77,1.54.25,2.01.75c.47.5.71,1.19.71,2.08s-.24,1.59-.73,2.1c-.49.51-1.16.77-2.04.77Z"/>
    <path class="cls-2" d="M165.59,192.24v-3.94h4.67v-12.47h-4.5v-3.94h4.5c0-3.08.51-5.26,1.52-6.53,1.01-1.27,2.78-1.91,5.29-1.91,1.68,0,3.54.24,5.57.73l-.69,3.9c-1.77-.4-3.26-.6-4.46-.6s-1.97.3-2.31.9-.51,1.77-.51,3.51h7.46v3.94h-7.46v12.47h7.54v3.94h-16.62Z"/>
    <path class="cls-2" d="M187.23,175.83v-3.94h3.47v-4.88l4.41-.43v5.31h8.01v3.94h-8.01v8.57c0,1.57.16,2.68.47,3.32.31.64.96.96,1.93.96,1.68,0,3.66-.27,5.91-.81l.73,3.81c-2.48.66-4.7.99-6.64.99-2.74,0-4.56-.61-5.46-1.84-.9-1.23-1.35-3.37-1.35-6.43v-8.57h-3.47Z"/>
  </g>
  <g>
    <path class="cls-1" d="M159.25,32.12v98.58H60.67V32.12h98.58M164.16,27.22H55.76v108.39h108.39V27.22h0Z"/>
    <rect class="cls-2" x="103.39" y="15.7" width="13.14" height="72.29" transform="translate(161.8 -58.12) rotate(90)"/>
    <rect class="cls-2" x="83.68" y="55.12" width="13.14" height="32.87" transform="translate(161.8 -18.69) rotate(90)"/>
    <rect class="cls-2" x="113.25" y="64.98" width="13.14" height="13.14" transform="translate(191.38 -48.27) rotate(90)"/>
    <rect class="cls-2" x="103.4" y="94.55" width="13.14" height="32.87" transform="translate(220.95 1.02) rotate(90)"/>
    <rect class="cls-2" x="132.97" y="64.98" width="13.14" height="13.14" transform="translate(211.1 -67.99) rotate(90)"/>
    <rect class="cls-2" x="83.68" y="74.84" width="13.14" height="32.87" transform="translate(181.52 1.02) rotate(90)"/>
    <rect class="cls-2" x="73.82" y="104.41" width="13.14" height="13.14" transform="translate(191.37 30.6) rotate(90)"/>
    <rect class="cls-2" x="132.97" y="104.41" width="13.14" height="13.14" transform="translate(250.53 -28.56) rotate(90)"/>
    <rect class="cls-2" x="123.11" y="74.85" width="13.14" height="32.85" transform="translate(220.95 -38.41) rotate(90)"/>
  </g>
</svg>